/* XPM */
static char * maximize_unfocused1_xpm[] = {
"21 21 39 1",
" 	c None",
".	c #B7E0F1",
"+	c #8AC6DF",
"@	c #419AC1",
"#	c #469BC1",
"$	c #347491",
"%	c #3F94BB",
"&	c #2F6F8C",
"*	c #5BB9D9",
"=	c #3990B7",
"-	c #2A6C89",
";	c #53B5D6",
">	c #348BB2",
",	c #276886",
"'	c #4CB0D2",
")	c #3286AD",
"!	c #256482",
"~	c #4AACCE",
"{	c #3184AC",
"]	c #246381",
"^	c #49AACD",
"/	c #91CCE1",
"(	c #3080A7",
"_	c #24607D",
":	c #47A6C9",
"<	c #90C9DE",
"[	c #125372",
"}	c #0D3E55",
"|	c #1C7497",
"1	c #76ABC0",
"2	c #104C6A",
"3	c #0C394F",
"4	c #196B8F",
"5	c #75A6BB",
"6	c #104A69",
"7	c #104C69",
"8	c #0C3F5B",
"9	c #0C3E59",
"0	c #0C3E5B",
".....................",
"+++++++++++++++++++++",
"@@@@@@@@@@@@@@@@@@@@@",
"###$$$$$$$$$$$$$$$###",
"%%%&*************&%%%",
"===-;;;;;;;;;;;;;-===",
">>>,''''''''''''',>>>",
")))!~~~~~~~~~~~~~!)))",
"{{{]^^^///////^^^]{{{",
"(((_:::<<<<<<<:::_(((",
"[[[}|||1|||||1|||}[[[",
"222344454444454443222",
"222344454444454443222",
"222344455555554443222",
"222344444444444443222",
"222344444444444443222",
"222344444444444443222",
"222333333333333333222",
"666666666666666666666",
"777777777777777777722",
"888888899999999999990"};
