/* XPM */
static char * menu_highlight_xpm[] = {
"21 21 35 1",
" 	c None",
".	c #ECF4FF",
"+	c #A7BDD5",
"@	c #B5CDE9",
"#	c #B5CCE9",
"$	c #B4CCE9",
"%	c #B2CAE8",
"&	c #B1CAE8",
"*	c #B1C9E8",
"=	c #B1C9E7",
"-	c #AEC7E6",
";	c #ADC7E6",
">	c #ADC6E6",
",	c #AAC4E5",
"'	c #AAC4E4",
")	c #A9C4E4",
"!	c #A7C2E3",
"~	c #A6C2E3",
"{	c #A6C1E3",
"]	c #A3BFE2",
"^	c #A3BFE1",
"/	c #A2BFE1",
"(	c #A2BEE1",
"_	c #9FBCE0",
":	c #9EBCE0",
"<	c #9EBBE0",
"[	c #9CB9DE",
"}	c #9BB9DE",
"|	c #98B7DD",
"1	c #98B6DD",
"2	c #97B6DD",
"3	c #97B6DC",
"4	c #94B4DB",
"5	c #94B3DB",
"6	c #93B3DB",
".....................",
".....................",
".....................",
".....................",
".....................",
".....................",
".....................",
".....................",
".....................",
".....................",
"+++++++++++++++++++++",
"@@@##############$$$$",
"%%&&&&&&&&&*********=",
"---------;;;;;;;;;>>>",
",,,,,,,,,,,,'''')))))",
"!~~~{{{{{{{{{{{{{{{{{",
"]]]]]^^^^///(((((((((",
"________________::::<",
"[}}}}}}}}}}}}}}}}}}}}",
"||||||112222222222233",
"444444444444445666666"};
